<svg xmlns="http://www.w3.org/2000/svg" viewBox="0 0 537.65 64.83"><g data-name="&lt;Group&gt;" fill-rule="evenodd"><path data-name="&lt;Path&gt;" d="M14.8 11.71l10 3.39-1.59 8-13.86-4.68 3.4-5.9a1.56 1.56 0 012.05-.81z" fill="#003865"/><path data-name="&lt;Path&gt;" d="M.68 37l8.72-7.63 6.76 5.93L4.07 45.91.33 39.43A1.7 1.7 0 01.68 37z" fill="#006298"/><path data-name="&lt;Path&gt;" d="M16.33 63.18l-2.5-12.51 9.37-3.18 3.45 17.35h-8.23a1.87 1.87 0 01-2.09-1.66z" fill="#0085ca"/><path data-name="&lt;Path&gt;" d="M48.44 62.66l-13.29-4.51 2.12-10.66 18.43 6.25-4.53 7.84a2.06 2.06 0 01-2.73 1.08z" fill="#00a9e0"/><path data-name="&lt;Path&gt;" d="M64.91 33L53.3 43.19l-9-7.89 16.1-14.12 5 8.63a2.27 2.27 0 01-.49 3.19z" fill="#71c5e8"/><path data-name="&lt;Path&gt;" d="M46.41 2.22l3.32 16.67-12.46 4.22L32.67 0h11a2.5 2.5 0 012.74 2.22z" fill="#87d6f8"/></g><path d="M106.88 47.87a20.13 20.13 0 01-9.59 2.4c-10.14 0-16-6.94-16-16.59S88 16.54 97.94 16.54a18.26 18.26 0 018.29 1.75v4.15a16.67 16.67 0 00-8.23-2.1c-7.6 0-12.09 5.8-12.09 13.14 0 7.65 4.54 13 11.79 13a16 16 0 007.89-2.15zm7.54-31.03h16.64l-1.3 3.65h-10.89v10.59h10.74v3.7h-10.74v11.35h12.39v3.64h-16.84zm24.18 0h4.3l14.89 19.39c2 2.5 3.35 4.5 4.45 6.15h.1c-.1-1.8-.1-3.4-.1-5.75V16.84h4.44v32.93h-3.89l-15.44-20.13c-1.85-2.4-3.2-4.3-4.35-5.95h-.1c.1 1.55.15 3.15.15 5.5v20.58h-4.45zm49.91 19.54l-1.3-3.65h13.7v15a25.83 25.83 0 01-11.15 2.55c-10.14 0-16.59-6.84-16.59-16.44 0-10.09 7-17.29 17.39-17.29a24.92 24.92 0 019.15 1.75v4.15a19.64 19.64 0 00-8.9-2.1c-8.29 0-12.94 5.4-12.94 13.09 0 8 4.75 13 12.34 13a15.33 15.33 0 006.3-1.2v-8.9zm29.98-19.64h3.15l12.79 33h-4.75l-3.25-8.64h-12.74l-3.15 8.64h-4.64zm6.59 20.74L222 28.89c-1-2.8-1.45-4.3-1.85-5.5H220c-.35 1.2-.9 2.75-1.9 5.55l-3.1 8.54zm26.92-1.1l-1.3-3.65h13.7v15a25.75 25.75 0 01-11.14 2.55c-10.14 0-16.59-6.84-16.59-16.44 0-10.09 7-17.29 17.39-17.29a24.81 24.81 0 019.14 1.75v4.15a19.57 19.57 0 00-8.89-2.1c-8.29 0-12.94 5.4-12.94 13.09 0 8 4.75 13 12.34 13a15.33 15.33 0 006.3-1.2v-8.9zm20.39-19.54H289l-1.3 3.65h-10.86v10.59h10.74v3.7h-10.74v11.35h12.39v3.64h-16.84zm72.22 0h4.09l9 13.38c1.34 2 2.19 3.25 3 4.6h.1c.75-1.3 1.65-2.8 2.9-4.8l8.39-13.18h4.1v32.91h-4.4V29.42c0-1.55 0-3.54.05-5.19h-.05c-.65 1.25-1.75 2.94-2.35 3.89l-7.59 12.09h-2.2l-8.35-12.34a33.26 33.26 0 01-2.25-3.54H349c.1 1.45.1 3.59.1 5v20.42h-4.44zm39.96 0H389v32.91h-4.45zm12.84 0h4.3l14.88 19.38c2 2.49 3.35 4.49 4.45 6.14h.1c-.1-1.8-.1-3.4-.1-5.75V16.84h4.4v32.91h-3.85l-15.44-20.13c-1.84-2.4-3.19-4.29-4.34-5.94h-.1c.1 1.55.15 3.15.15 5.49v20.58h-4.45zm36.42 0h8.64c11.74 0 17.63 6.79 17.63 16.28s-6.1 16.63-17.93 16.63h-8.34zm8.34 29.27c9.79 0 13.24-6 13.24-13.09 0-7.29-4.25-12.54-13.29-12.54h-3.84v25.63zm29.98-25.63h-9.49v-3.64H487l-1.25 3.64h-9.14v29.27h-4.44zm25.53-3.74h3.19l12.79 33h-4.75l-3.24-8.64h-12.74l-3.2 8.64h-4.59zm6.59 20.73l-3-8.6c-1-2.79-1.45-4.29-1.85-5.49h-.1c-.35 1.2-.89 2.75-1.89 5.54l-3.1 8.55zm14.29-20.63h6.74a14.52 14.52 0 017.25 1.49c3.09 1.7 4.94 4.8 4.94 9a9.62 9.62 0 01-5.79 9.29 16.41 16.41 0 01-6.8 1.2H523v11.93h-4.45zm6.64 17.38a9.64 9.64 0 004.5-.9c2.15-1.1 3.15-3.15 3.15-5.95a6.41 6.41 0 00-3-5.84 8.88 8.88 0 00-4.65-1.05H523v13.74zM315.62 0h2.5v64.8h-2.5z" fill="#003865"/></svg>